<?xml version="1.0" encoding="UTF-8"?>
<svg version="1.1" xmlns="http://www.w3.org/2000/svg" width="534" height="534">
<path d="M0 0 C0.83378504 -0.00155999 1.66757009 -0.00311998 2.52662134 -0.00472724 C5.29612702 -0.00868747 8.06557701 -0.00556673 10.83508301 -0.00241089 C12.83210278 -0.00376739 14.8291223 -0.00554872 16.82614136 -0.00772095 C22.24088087 -0.01227276 27.65560127 -0.01051308 33.07034111 -0.00734186 C38.77239913 -0.00479823 44.47445558 -0.00716214 50.17651367 -0.00872803 C59.77657359 -0.01054743 69.37662582 -0.00815311 78.97668457 -0.00338745 C89.98989599 0.00201751 101.00308878 0.00031925 112.01629972 -0.00521386 C121.52604945 -0.00979637 131.03579367 -0.01036963 140.54554415 -0.00777519 C146.19987573 -0.00623554 151.85419867 -0.00595293 157.50852966 -0.00931168 C171.42056717 -0.01621994 185.33167627 0.01250576 199.24328613 0.12698364 C200.08378635 0.13342298 200.92428658 0.13986231 201.7902565 0.14649677 C206.42791419 0.18490352 211.06419692 0.24610703 215.70098591 0.3444674 C217.65732682 0.38308633 219.61397218 0.40526494 221.57057953 0.42645073 C236.56660452 0.82637561 250.32143064 3.78696298 261.05578613 14.81448364 C270.37767913 26.20790841 270.55067834 42.49885968 270.5020752 56.52957153 C270.50733215 58.43471275 270.50733215 58.43471275 270.51269531 60.37834167 C270.52170889 63.8204565 270.51832159 67.26244965 270.51193714 70.70456624 C270.50682037 74.33173874 270.51158408 77.95890185 270.51470947 81.58607483 C270.51833229 87.67240237 270.51359403 93.75868112 270.50402832 99.84500122 C270.49314212 106.8518127 270.49667736 113.85850777 270.50768113 120.86531645 C270.51679642 126.914983 270.51801881 132.96461478 270.51280379 139.01428598 C270.50970792 142.61277988 270.50920846 146.21121929 270.51587677 149.80970955 C270.52279897 153.82447175 270.51316862 157.83903742 270.5020752 161.85379028 C270.50612366 163.02452087 270.51017212 164.19525146 270.51434326 165.40145874 C270.44101265 179.81334575 268.5250258 194.63756374 258.11437988 205.45120239 C241.61521042 220.22812034 217.96482597 218.42350263 197.33703613 218.35745239 C194.85742707 218.35672013 192.37781766 218.35678167 189.89820862 218.35757446 C183.91909011 218.35682074 177.94006642 218.34630444 171.96097535 218.33031929 C167.11276946 218.31742537 162.26456924 218.30816068 157.41635132 218.3012085 C139.49289932 218.27478431 121.56962665 218.22204179 103.64629525 218.15174073 C98.73146553 218.13249562 93.81663218 218.11474669 88.90179443 218.09768677 C73.29052352 218.04278581 57.6795041 217.96726531 42.06848145 217.86151123 C37.24866911 217.82902388 32.42888356 217.80259625 27.60900879 217.78137207 C21.95236916 217.75574863 16.2960162 217.71551628 10.63955498 217.66398621 C8.58477561 217.64745321 6.5299508 217.63569891 4.47511482 217.62931824 C-13.0005269 217.56920573 -30.46633957 216.84294132 -43.94030762 204.18557739 C-53.97330234 192.81485004 -55.21852072 177.81619888 -55.14489746 163.27542114 C-55.15015442 161.96937927 -55.15541138 160.6633374 -55.16082764 159.31771851 C-55.1743388 155.78044268 -55.16927082 152.24343351 -55.15969038 148.70615387 C-55.15200856 144.97581855 -55.15916273 141.24550361 -55.16384888 137.51516724 C-55.16928194 131.25487233 -55.16217966 124.99468416 -55.14782715 118.73440552 C-55.13150533 111.53272889 -55.13679559 104.33130722 -55.15330637 97.12963676 C-55.16699159 90.90750917 -55.16880677 84.68545759 -55.16099036 78.46331978 C-55.15635223 74.76414955 -55.15558093 71.06509849 -55.16559982 67.36593628 C-55.17600576 63.23665672 -55.16151817 59.10780544 -55.14489746 54.97854614 C-55.15097015 53.77917419 -55.15704285 52.57980225 -55.16329956 51.34408569 C-55.06374667 37.88903865 -52.8851908 23.63113156 -43.97546387 13.00198364 C-32.18558551 1.79193537 -15.52805604 -0.04554187 0 0 Z " fill="#4F4E4E" transform="translate(164.7567138671875,175.87301635742188)"/>
<path d="M0 0 C0.94148162 -0.00297112 1.88296323 -0.00594224 2.85297459 -0.0090034 C6.02741407 -0.0177182 9.20181596 -0.01920099 12.37626648 -0.02069092 C14.64428285 -0.02531712 16.91229844 -0.03034151 19.18031311 -0.03573608 C25.35595299 -0.04888106 31.53158198 -0.05530911 37.70723367 -0.05974674 C41.56235352 -0.06267406 45.41747038 -0.06677821 49.27258873 -0.07125092 C59.94327996 -0.08336282 70.61396754 -0.09374387 81.28466511 -0.09712601 C81.96785525 -0.09734557 82.6510454 -0.09756514 83.35493828 -0.09779136 C84.03977777 -0.09800964 84.72461726 -0.09822791 85.43020946 -0.09845281 C86.81799018 -0.09889627 88.20577091 -0.09934284 89.59355164 -0.09979248 C90.62613582 -0.10012463 90.62613582 -0.10012463 91.67958029 -0.10046348 C102.8340969 -0.10441153 113.98854819 -0.12186509 125.14303956 -0.145152 C136.59128926 -0.16885953 148.0394915 -0.18106955 159.48776883 -0.18249393 C165.91711928 -0.18354381 172.34637763 -0.18949063 178.77570534 -0.20731354 C184.8224521 -0.2237492 190.8690371 -0.22597163 196.91579819 -0.21717453 C199.1374206 -0.21640174 201.35905155 -0.22077855 203.58065224 -0.23063278 C206.60930127 -0.2432808 209.63737117 -0.23751427 212.66601562 -0.22705078 C213.54889623 -0.23510719 214.43177684 -0.24316359 215.34141141 -0.25146413 C220.05102856 -0.21330803 223.22509709 0.04140084 227.02348328 3.14044189 C229.50000453 6.85522378 229.28232704 8.75702386 229.29814148 13.19464111 C229.30325241 13.90881195 229.30836334 14.62298279 229.31362915 15.35879517 C229.32753523 17.72099171 229.32656743 20.08289676 229.32426453 22.44512939 C229.32815138 24.08796294 229.33248603 25.73079548 229.33724976 27.37362671 C229.34471449 30.81855525 229.34441922 34.26338132 229.3391571 37.70831299 C229.33336714 42.11904395 229.35028056 46.52935435 229.37350178 50.94001579 C229.3882487 54.33383632 229.38910944 57.72755585 229.38599205 61.12140274 C229.38650495 62.74727332 229.39173681 64.37314961 229.40180397 65.99898911 C229.41416765 68.27541994 229.40737739 70.55103542 229.39579773 72.82745361 C229.39642715 74.12190399 229.39705658 75.41635437 229.39770508 76.75003052 C228.99266938 80.41961267 228.31179409 82.26743019 226.02348328 85.14044189 C223.23677599 86.82521247 221.16065936 87.39119754 217.92202854 87.3977108 C216.70248583 87.40738414 216.70248583 87.40738414 215.4583059 87.4172529 C214.57066786 87.41415569 213.68302981 87.41105849 212.76849365 87.40786743 C211.34758263 87.4146641 211.34758263 87.4146641 209.89796633 87.42159808 C206.71587912 87.43428368 203.53396215 87.43261903 200.35185242 87.43096924 C198.07368753 87.43695183 195.79552467 87.44375675 193.5173645 87.45132446 C187.32323751 87.46901761 181.12916574 87.4736812 174.93501592 87.47495604 C169.76828311 87.4768532 164.60156322 87.48420851 159.43483537 87.49130023 C147.94468221 87.5066628 136.45456508 87.51263701 124.96440429 87.51128952 C124.27499655 87.51120961 123.5855888 87.5111297 122.87528992 87.51104736 C122.18504085 87.5109656 121.49479178 87.51088384 120.78362607 87.5107996 C109.59364309 87.50998645 98.40379463 87.52913159 87.21385057 87.5573241 C75.72484888 87.58604179 64.23593021 87.59949863 52.74689001 87.59813654 C46.29630765 87.59762588 39.84587755 87.60336708 33.39532661 87.62449265 C27.33044937 87.6438125 21.26587063 87.64404227 15.20098305 87.62945938 C12.97290869 87.62736251 10.74481595 87.63212409 8.51677322 87.6441803 C5.47931341 87.65955413 2.44289303 87.65037641 -0.59454346 87.63491821 C-1.92265443 87.6503489 -1.92265443 87.6503489 -3.27759594 87.66609132 C-7.37941064 87.61983686 -9.45265421 87.47062506 -13.00039005 85.23453712 C-16.44538347 81.58388842 -16.1209113 79.05665655 -16.16938782 74.10797119 C-16.17756531 73.38419281 -16.1857428 72.66041443 -16.19416809 71.91470337 C-16.21902086 69.51469756 -16.23553778 67.1147509 -16.24995422 64.71466064 C-16.2552779 63.89529337 -16.26060158 63.07592609 -16.26608658 62.23172951 C-16.29281779 57.89475057 -16.31219266 53.55780042 -16.32661438 49.22076416 C-16.34326158 44.74144861 -16.38803929 40.26286892 -16.43898582 35.7838316 C-16.47264472 32.33941301 -16.48419025 28.89516938 -16.48984146 25.45060158 C-16.49655786 23.79956247 -16.51179019 22.14853503 -16.53573227 20.49765587 C-16.56735976 18.18485973 -16.56742542 15.87405188 -16.56001282 13.56109619 C-16.56809967 12.24586472 -16.57618652 10.93063324 -16.58451843 9.57554626 C-15.82508088 5.28485562 -14.31211675 3.84485332 -10.97651672 1.14044189 C-7.58700321 -0.55431486 -3.72883807 -0.00363205 0 0 Z " fill="#8CCA46" transform="translate(165.9765167236328,214.85955810546875)"/>
<path d="M0 0 C2.78545888 2.78545888 2.30487944 4.53192813 2.39648438 8.44116211 C2.41450607 9.11498743 2.43252777 9.78881275 2.45109558 10.48305702 C2.50887205 12.76853439 2.55160119 15.05402799 2.59375 17.33984375 C2.63074379 18.99064521 2.66814964 20.64143748 2.70593262 22.29222107 C3.18133933 44.22616028 3.30884928 66.16728307 3.47393799 88.10522461 C3.95634929 152.09985172 4.84089671 216.07211666 6.49119949 280.04756451 C6.73099556 289.34395281 6.96175317 298.64046345 7.18016517 307.9373799 C7.33863116 314.65345346 7.50685737 321.36924021 7.68227303 328.08489221 C7.78510272 332.02974237 7.88415932 335.97458503 7.9725914 339.91978645 C8.33156499 355.78900804 8.81300174 371.39573997 12 387 C12.21743866 388.08946426 12.43487732 389.17892853 12.65890503 390.30140686 C12.83334137 391.1713176 13.00777771 392.04122833 13.1875 392.9375 C14.36701344 399.34485689 15.60144023 406.72197864 12.66796875 412.7265625 C10.45059833 415.74883319 8.66852138 416.85037021 5.015625 417.66796875 C-3.44707656 418.83554065 -11.64500635 419.12395916 -20.1875 418.8125 C-21.17911133 418.78244873 -22.17072266 418.75239746 -23.19238281 418.72143555 C-32.85189186 418.24904948 -32.85189186 418.24904948 -36 415 C-38.27007391 408.80025977 -38.03536139 403.63226636 -36.48046875 397.3359375 C-36.30244217 396.54079742 -36.12441559 395.74565735 -35.94099426 394.92642212 C-35.37438755 392.4047915 -34.78316239 389.88991131 -34.1875 387.375 C-31.49900543 375.8593003 -29.34736852 364.87465918 -29 353 C-28.94751684 351.62089951 -28.89417994 350.2418313 -28.84008789 348.86279297 C-28.35644511 335.6487448 -28.20264466 322.42225634 -28.02928162 309.2013092 C-27.99786575 306.8395531 -27.96484156 304.47782223 -27.9317627 302.11608887 C-27.79210378 291.9633369 -27.68349875 281.81088266 -27.62155628 271.657341 C-27.59242387 266.92315415 -27.55349115 262.18954978 -27.48995972 257.45568848 C-27.4300141 252.93037065 -27.39984123 248.40576692 -27.39123154 243.88006973 C-27.38310367 242.19204604 -27.36466175 240.50403614 -27.33520889 238.81624985 C-26.90796267 227.22535107 -26.90796267 227.22535107 -32.45565796 217.42832947 C-32.96529083 216.95698074 -33.47492371 216.48563202 -34 216 C-34.85722656 215.02933594 -35.71445312 214.05867187 -36.59765625 213.05859375 C-37.81775391 211.76115234 -37.81775391 211.76115234 -39.0625 210.4375 C-50.09097655 198.46230182 -50.09097655 198.46230182 -50.16113281 190.77124023 C-50.17059937 189.90983932 -50.18006592 189.04843842 -50.18981934 188.16093445 C-50.19421021 187.21966202 -50.19860107 186.27838959 -50.203125 185.30859375 C-50.21357849 183.82121452 -50.21357849 183.82121452 -50.22424316 182.30378723 C-50.24190126 179.01498283 -50.24799252 175.72635023 -50.25 172.4375 C-50.25100708 171.30509888 -50.25201416 170.17269775 -50.25305176 169.00598145 C-50.23379295 136.69537299 -48.22985964 104.51723649 -45 72.375 C-44.92245483 71.59451294 -44.84490967 70.81402588 -44.76501465 70.0098877 C-42.35440863 46.17535533 -38.28524377 22.17142182 -20 5 C-13.19311386 -0.22221424 -8.41259656 -1.49255745 0 0 Z " fill="#C9EE88" transform="translate(503,50)"/>
<path d="M0 0 C2.5119859 2.5119859 2.23524138 4.02632841 2.24884033 7.45266724 C2.24164978 8.21223724 2.23445923 8.97180725 2.22705078 9.75439453 C2.22734283 10.55447937 2.22763489 11.35456421 2.22793579 12.17889404 C2.22653956 14.83030953 2.2109647 17.48144594 2.1953125 20.1328125 C2.19158341 21.96841274 2.18873595 23.80401498 2.18673706 25.63961792 C2.1790924 30.47627232 2.1594368 35.31280703 2.1373291 40.14941406 C2.11688857 45.08266582 2.10773919 50.01593687 2.09765625 54.94921875 C2.07619167 64.63286515 2.04204572 74.31642263 2 84 C2.66 84.33 3.32 84.66 4 85 C4.99 84.505 4.99 84.505 6 84 C7.18160302 77.4030404 7.28121852 70.7256335 7.5 64.0390625 C7.54060547 62.89448578 7.58121094 61.74990906 7.62304688 60.57064819 C7.7520602 56.92220711 7.87636684 53.27362704 8 49.625 C8.28087711 41.45652303 8.57030485 33.28851225 8.88378906 25.12121582 C8.95844449 23.11610582 9.02849828 21.11081627 9.09277344 19.10534668 C9.17403056 16.57735993 9.27205743 14.05061859 9.375 11.5234375 C9.39369141 10.80459381 9.41238281 10.08575012 9.43164062 9.34512329 C9.61565663 5.35959854 10.06425226 2.81283541 13 0 C15.5625 -0.375 15.5625 -0.375 18 0 C20.87758234 2.87758234 20.29993833 5.7756693 20.30297852 9.63085938 C20.31141785 10.41797806 20.31985718 11.20509674 20.32855225 12.0160675 C20.35440227 14.62530091 20.36648688 17.23442109 20.37890625 19.84375 C20.39507306 21.65214951 20.41225218 23.46054023 20.43040466 25.2689209 C20.47616475 30.03566431 20.51093173 34.80241931 20.54260254 39.5692749 C20.59441003 47.20007294 20.65952031 54.83074177 20.73081779 62.46138 C20.75370334 65.13256694 20.76994144 67.80373739 20.78553772 70.47497559 C20.79894189 72.10636577 20.81255648 73.73775425 20.82641602 75.36914062 C20.82902939 76.1162178 20.83164276 76.86329498 20.83433533 77.63301086 C20.80924851 81.44301467 20.80924851 81.44301467 22 85 C22.99 85 23.98 85 25 85 C26.16121636 81.51635093 26.15225644 78.38611378 26.15771484 74.76220703 C26.16279556 74.02852905 26.16787628 73.29485107 26.17311096 72.53894043 C26.18380726 70.94622107 26.19243035 69.35348676 26.19923019 67.760746 C26.21102698 65.23868224 26.23048161 62.7167891 26.25234985 60.1947937 C26.31394113 53.02428876 26.36801136 45.85380177 26.40136719 38.68310547 C26.42232211 34.29637457 26.45763095 29.90995569 26.50212479 25.52340317 C26.51627753 23.85292103 26.52500559 22.18238371 26.52817917 20.51184464 C26.53309266 18.17309201 26.55626053 15.83516636 26.58349609 13.49658203 C26.58048996 12.80861542 26.57748383 12.1206488 26.5743866 11.41183472 C26.64806204 7.14782235 27.29977191 4.34447081 30 1 C33.0625 0.5 33.0625 0.5 36 1 C41.49533952 9.24300929 39.20216323 23.38502708 39.31640625 33.14453125 C39.33704028 34.65053289 39.3580381 36.15652958 39.37937927 37.66252136 C39.43393562 41.57992484 39.4836308 45.49737461 39.53222656 49.41485596 C39.58293455 53.43090821 39.63836024 57.44689525 39.69335938 61.46289062 C39.80012514 69.30853815 39.90174261 77.15424081 40 85 C41.32 85 42.64 85 44 85 C44.02061493 83.97713898 44.04122986 82.95427795 44.06246948 81.90042114 C44.25770247 72.27645051 44.4631475 62.65274532 44.67867851 53.02920723 C44.78916341 48.08124948 44.89600704 43.13326814 44.99462891 38.18505859 C45.08987793 33.41271816 45.1945612 28.64067071 45.3058815 23.86867905 C45.34674618 22.04503518 45.38416949 20.22131095 45.41814804 18.39752579 C45.46619863 15.84951885 45.5263098 13.30206823 45.58935547 10.75439453 C45.60086639 9.99482452 45.61237732 9.23525452 45.62423706 8.45266724 C45.77189568 3.22810432 45.77189568 3.22810432 48 1 C53.19815668 0.44700461 53.19815668 0.44700461 55.8125 2.25 C58.54625541 6.27869218 58.1988641 10.98311703 58.29711914 15.69238281 C58.31677231 16.46396225 58.33642548 17.23554169 58.35667419 18.03050232 C58.42062124 20.58795625 58.47801848 23.14551055 58.53515625 25.703125 C58.57825597 27.50080095 58.62167262 29.29846933 58.66539001 31.09613037 C58.75640676 34.87896778 58.84432167 38.66186067 58.92993164 42.44482422 C59.03815048 47.22099579 59.1527785 51.99698558 59.26946449 56.77295685 C59.54736084 68.1813397 59.79610491 79.59004444 60 91 C60.01243492 91.6877652 60.02486984 92.3755304 60.03768158 93.08413696 C60.10748831 97.07168123 60.15420802 101.05884086 60.18359375 105.046875 C60.19681168 105.94376038 60.2100296 106.84064575 60.22364807 107.76470947 C60.23949823 116.37527107 59.264677 125.88239199 54 133 C49.63693256 137.21599775 46.00731818 139.93951872 40 141 C39.9668447 161.9780651 39.97445644 182.95577983 40.02846622 203.93380833 C40.05263855 213.67789259 40.06427871 223.42166877 40.04467773 233.16577148 C40.02759461 241.67494983 40.03579428 250.18369644 40.07234758 258.69281906 C40.09080999 263.1838042 40.09798108 267.6740622 40.07469368 272.16504097 C39.9782759 292.42038013 41.21721987 310.81159846 46.50047302 330.42222595 C48.03311901 336.477318 49.25513942 342.79335436 48 349 C44.70128077 353.15267877 41.11215973 354.23948446 36 355 C33.28780835 355.15874931 30.70348958 355.23961931 28 355.1875 C26.90957397 355.17456909 26.90957397 355.17456909 25.79711914 355.16137695 C23.53062705 355.12492716 21.26579722 355.06651164 19 355 C18.27022949 354.98066406 17.54045898 354.96132813 16.78857422 354.94140625 C1.69004744 354.47882467 1.69004744 354.47882467 -5 351 C-8.62512037 345.56231944 -7.70824406 338.30268428 -6.67022705 331.99658203 C-5.66883903 327.11442593 -4.36910584 322.30773199 -3.0625 317.5 C-2.4934365 315.38633559 -1.93019168 313.27174841 -1.38145447 311.15270996 C-0.88313221 309.23058742 -0.36621837 307.3133116 0.15209961 305.39648438 C2.51025921 294.83532993 2.17400937 283.53245367 2.37304688 272.76196289 C2.40081065 271.40180826 2.42890202 270.04166029 2.45729065 268.68151855 C2.51711897 265.78488289 2.57480132 262.88821587 2.63075256 259.99150276 C2.71946295 255.40549902 2.81385263 250.81962228 2.90905762 246.23374939 C3.14439919 234.85585134 3.3721643 223.47780309 3.59893799 212.09973145 C3.7758603 203.22802366 3.95477833 194.35636513 4.13948298 185.48481554 C4.23407423 180.93071781 4.32464881 176.37656377 4.412117 171.82232392 C4.4673799 168.98997364 4.52620019 166.15770525 4.58598137 163.32544708 C4.62564587 161.39587023 4.66104776 159.46620722 4.69630432 157.5365448 C4.81785565 151.94012618 5.01419875 146.51490161 6 141 C5.05125 140.855625 4.1025 140.71125 3.125 140.5625 C-3.80913405 138.59947631 -8.97535183 132.3789616 -13.5 127.0625 C-17.10593956 119.70037341 -17.32759707 111.54949174 -17.2421875 103.484375 C-17.23645721 102.49653015 -17.23072693 101.5086853 -17.224823 100.49090576 C-17.07987294 88.70571502 -16.11144726 76.98889454 -15.125 65.25 C-14.93809577 62.95148652 -14.75206751 60.65290165 -14.56689453 58.35424805 C-14.29386761 54.96812756 -14.02011307 51.58208453 -13.74252319 48.19633484 C-13.24444162 42.1135618 -12.77272338 36.03052573 -12.359375 29.94140625 C-12.27413574 28.69907227 -12.18889648 27.45673828 -12.10107422 26.17675781 C-11.95711746 24.03450719 -11.81763057 21.89194809 -11.68408203 19.74902344 C-10.6776277 5.10549699 -10.6776277 5.10549699 -7.62060547 1.26879883 C-5.1227736 -0.68679506 -3.0620608 -0.32575115 0 0 Z " fill="#8CCB47" transform="translate(31,108)"/>
<path d="M0 0 C0.96093482 -0.00523668 1.92186965 -0.01047336 2.91192371 -0.01586872 C6.13450584 -0.03088016 9.35692935 -0.03157414 12.57954407 -0.03224182 C14.88915271 -0.03986261 17.19875882 -0.04828997 19.50836182 -0.0574646 C25.78540138 -0.07942634 32.06239221 -0.08821096 38.33946586 -0.09329104 C42.26181667 -0.0969331 46.18415469 -0.10317243 50.10650063 -0.11029243 C60.97460479 -0.1297494 71.84269592 -0.14626143 82.71081829 -0.14916897 C83.40598332 -0.14935654 84.10114835 -0.14954411 84.81737899 -0.14973736 C86.22654553 -0.1501036 87.63571208 -0.1504673 89.04487862 -0.15082847 C89.74435533 -0.15101128 90.44383204 -0.1511941 91.164505 -0.15138245 C91.86483948 -0.151563 92.56517395 -0.15174354 93.28673068 -0.15192956 C104.62849641 -0.15546938 115.97007206 -0.18248051 127.31177189 -0.21988034 C138.96693969 -0.25800498 150.62200416 -0.27688612 162.27723533 -0.27762848 C168.81686889 -0.2784213 175.35625727 -0.28716253 181.89583397 -0.31562614 C188.04942715 -0.34181013 194.20257196 -0.3440096 200.35619545 -0.3279705 C202.61120202 -0.32615623 204.86623438 -0.33284472 207.1211853 -0.34878922 C210.20737601 -0.36927582 213.29200183 -0.35868175 216.37817383 -0.34057617 C217.26389861 -0.35377614 218.1496234 -0.36697611 219.06218833 -0.38057607 C226.7354045 -0.2782373 233.042513 2.39301182 238.94404602 7.30149841 C239.45967102 7.93184998 239.97529602 8.56220154 240.50654602 9.21165466 C241.31092102 10.15331482 241.31092102 10.15331482 242.13154602 11.11399841 C245.33139316 16.14103099 245.81024052 21.22213 245.82881165 27.04856873 C245.83874146 27.80391403 245.84867126 28.55925934 245.85890198 29.3374939 C245.88796815 31.82162706 245.90171938 34.3055048 245.91279602 36.78977966 C245.92127815 38.07016239 245.92127815 38.07016239 245.92993164 39.37641144 C245.95984639 43.89425888 245.97834831 48.41197976 245.98701477 52.92991638 C245.99797019 57.57470961 246.04601227 62.21832609 246.10295868 66.86275101 C246.1403813 70.45407901 246.15063152 74.04512839 246.15368652 77.63663483 C246.15970331 79.34774453 246.17563707 81.05885146 246.20205688 82.76976776 C246.34146895 92.49233916 246.19021661 100.52127291 239.50654602 108.27415466 C237.05732727 110.52806091 237.05732727 110.52806091 234.81904602 111.83665466 C234.07267883 112.29169373 233.32631165 112.74673279 232.55732727 113.21556091 C229.43351478 114.82804317 226.90975372 115.3999082 223.44560814 115.41116905 C222.61613714 115.41624359 221.78666613 115.42131814 220.93205965 115.42654645 C220.02089155 115.42704421 219.10972346 115.42754197 218.17094421 115.42805481 C217.20284557 115.43243706 216.23474693 115.43681932 215.23731196 115.44133437 C211.97858466 115.45473741 208.71988441 115.46090464 205.46113586 115.46702576 C203.130497 115.47492557 200.79985936 115.48319445 198.46922302 115.49180603 C190.80198843 115.51804137 183.13474834 115.53333578 175.46748352 115.54759216 C172.82933676 115.55295133 170.19119005 115.55832884 167.55304337 115.56372452 C156.57950768 115.58535598 145.6059733 115.6042441 134.63242149 115.61534691 C131.78496166 115.61827653 128.93750186 115.6212382 126.09004211 115.62425232 C125.02847859 115.6253714 125.02847859 115.6253714 123.94546933 115.62651308 C112.48651275 115.63916088 101.02771154 115.67237648 89.56882755 115.71405415 C77.79960894 115.75650897 66.03046978 115.78004608 54.2611748 115.78526747 C47.65502115 115.78892217 41.04913082 115.80095666 34.44305038 115.83337021 C28.22630455 115.86343567 22.00998158 115.8697677 15.79317856 115.85798645 C13.51355921 115.85776559 11.23392032 115.86608093 8.95436859 115.88364029 C5.83708782 115.90634218 2.72133905 115.89803111 -0.39595032 115.88215637 C-1.29373408 115.89603846 -2.19151784 115.90992055 -3.11650717 115.9242233 C-10.37265945 115.83345295 -16.00413837 113.5141054 -21.35244811 108.54801404 C-29.54342023 99.97692227 -28.98198546 89.59328884 -28.99736023 78.50852966 C-29.0070185 76.86719001 -29.01711222 75.22585287 -29.02761841 73.58451843 C-29.04552331 70.15173871 -29.05114541 66.71918477 -29.04936218 63.28636169 C-29.04905792 58.91749921 -29.08997676 54.55010612 -29.14167881 50.18159103 C-29.17526842 46.79260292 -29.18111287 43.40396134 -29.179533 40.01482391 C-29.18304038 38.40586035 -29.19612341 36.79688459 -29.21953011 35.18808746 C-29.35200977 25.14119748 -28.52644119 16.7633784 -22.49345398 8.27415466 C-15.64939844 1.62126226 -9.3167358 -0.0250878 0 0 Z M-12.49345398 18.27415466 C-13.9849336 21.2571139 -13.6455028 23.97882175 -13.67045593 27.30662537 C-13.67702713 28.03040375 -13.68359833 28.75418213 -13.69036865 29.49989319 C-13.71011128 31.89990844 -13.72176648 34.29986109 -13.73173523 36.69993591 C-13.73581076 37.51930319 -13.73988628 38.33867046 -13.74408531 39.18286705 C-13.76495041 43.51985294 -13.77925007 47.85680716 -13.78862 52.1938324 C-13.79968401 56.67303408 -13.83408219 61.15173891 -13.87379169 65.63076496 C-13.89994058 69.07518435 -13.90831028 72.51948506 -13.91190147 75.96399498 C-13.91677212 77.61501101 -13.9283998 79.26602157 -13.94693947 80.91694069 C-13.97129471 83.22952727 -13.97037316 85.54082473 -13.96342468 87.85350037 C-13.96929092 89.16873184 -13.97515717 90.48396332 -13.98120117 91.83905029 C-13.41522326 95.8251177 -12.30862345 97.45484461 -9.49345398 100.27415466 C-6.0948889 101.9734372 -2.2180555 101.41822272 1.52102661 101.41459656 C2.93937436 101.41905324 2.93937436 101.41905324 4.38637561 101.42359996 C7.57463458 101.43231487 10.76285613 101.43379756 13.9511261 101.43528748 C16.22899456 101.43991367 18.50686224 101.44493806 20.784729 101.45033264 C26.98722753 101.46347769 33.18971522 101.46990568 39.3922255 101.4743433 C43.26409632 101.4772706 47.13596416 101.48137475 51.00783348 101.48584747 C61.72484791 101.49795939 72.44185843 101.50834043 83.15887928 101.51172256 C84.18811592 101.51205191 84.18811592 101.51205191 85.23814521 101.51238792 C86.26986687 101.51271533 86.26986687 101.51271533 87.32243139 101.51304936 C88.71624108 101.51349283 90.11005078 101.5139394 91.50386047 101.51438904 C92.19524055 101.51461047 92.88662062 101.5148319 93.5989516 101.51506004 C104.80196703 101.5190081 116.00491741 101.5364617 127.20790771 101.55974856 C138.70587675 101.58345592 150.20380387 101.5956661 161.70179862 101.59709048 C168.15909458 101.59814038 174.61629884 101.6040874 181.07357216 101.6219101 C187.14658354 101.63834551 193.21943385 101.64056831 199.29245949 101.63177109 C201.52375722 101.63099828 203.75506346 101.63537528 205.98633957 101.64522934 C209.02812495 101.65787694 212.06933368 101.65211106 215.1111145 101.64164734 C216.44127184 101.65373195 216.44127184 101.65373195 217.79830104 101.66606069 C222.5326041 101.62786815 225.65323217 101.33913124 229.50654602 98.27415466 C232.06227557 94.83677515 231.77854858 91.27851282 231.8129425 87.10643005 C231.82542778 86.03495476 231.82542778 86.03495476 231.83816528 84.9418335 C231.86222258 82.58510357 231.87103128 80.22865052 231.87763977 77.87181091 C231.88660817 76.23040688 231.89573005 74.58900368 231.90499878 72.94760132 C231.92147885 69.50866205 231.9291873 66.06982004 231.93208313 62.63084412 C231.93747122 58.22776084 231.97517206 53.82559313 232.02082729 49.42276859 C232.05059002 46.03323029 232.05780648 42.64391291 232.05880928 39.25425529 C232.06301187 37.63114152 232.0754479 36.00802711 232.09632683 34.38504219 C232.12323206 32.11310291 232.11842112 29.84329187 232.10591125 27.5712738 C232.1109819 26.27983963 232.11605255 24.98840546 232.12127686 23.65783691 C231.34941585 19.4092581 229.80693153 17.96088882 226.50654602 15.27415466 C223.11873854 13.58025092 219.26386855 14.12621061 215.53675842 14.12698364 C214.59598237 14.12330695 213.65520632 14.11963027 212.68592191 14.11584216 C209.51381983 14.10477412 206.34175048 14.10095621 203.16963196 14.09715271 C200.90323786 14.09089043 198.6368448 14.08424385 196.37045288 14.07723999 C190.19888124 14.05980873 184.02731737 14.04927252 177.8557272 14.04103446 C174.00260978 14.03588902 170.14949479 14.0298131 166.29637909 14.02352333 C155.62998064 14.00665076 144.96358562 13.99201573 134.29717636 13.98477459 C131.52858733 13.98286467 128.7599983 13.98094434 125.9914093 13.97898865 C124.95921858 13.97826304 124.95921858 13.97826304 123.90617552 13.97752277 C112.7587798 13.96922235 101.61149139 13.94388578 90.46414253 13.91140797 C79.02153555 13.87834153 67.57900862 13.86065901 56.13634896 13.85713035 C49.71084574 13.85477613 43.28551207 13.8457673 36.86005402 13.82066917 C30.81573267 13.79744177 24.77169315 13.79313386 18.72733879 13.80343056 C16.50774386 13.80392732 14.2881353 13.79756578 12.06858253 13.78387451 C9.04013759 13.76623757 6.01271304 13.77322176 2.98426819 13.78640747 C1.66431654 13.7699536 1.66431654 13.7699536 0.31769919 13.75316733 C-5.22608151 13.81150914 -8.23034386 14.65932192 -12.49345398 18.27415466 Z " fill="#010201" transform="translate(163.4934539794922,200.72584533691406)"/>
<path d="M0 0 C2.5119859 2.5119859 2.23524138 4.02632841 2.24884033 7.45266724 C2.24164978 8.21223724 2.23445923 8.97180725 2.22705078 9.75439453 C2.22734283 10.55447937 2.22763489 11.35456421 2.22793579 12.17889404 C2.22653956 14.83030953 2.2109647 17.48144594 2.1953125 20.1328125 C2.19158341 21.96841274 2.18873595 23.80401498 2.18673706 25.63961792 C2.1790924 30.47627232 2.1594368 35.31280703 2.1373291 40.14941406 C2.11688857 45.08266582 2.10773919 50.01593687 2.09765625 54.94921875 C2.07619167 64.63286515 2.04204572 74.31642263 2 84 C2.66 84.33 3.32 84.66 4 85 C4.99 84.505 4.99 84.505 6 84 C7.18160302 77.4030404 7.28121852 70.7256335 7.5 64.0390625 C7.54060547 62.89448578 7.58121094 61.74990906 7.62304688 60.57064819 C7.7520602 56.92220711 7.87636684 53.27362704 8 49.625 C8.28087711 41.45652303 8.57030485 33.28851225 8.88378906 25.12121582 C8.95844449 23.11610582 9.02849828 21.11081627 9.09277344 19.10534668 C9.17403056 16.57735993 9.27205743 14.05061859 9.375 11.5234375 C9.39369141 10.80459381 9.41238281 10.08575012 9.43164062 9.34512329 C9.61565663 5.35959854 10.06425226 2.81283541 13 0 C15.5625 -0.375 15.5625 -0.375 18 0 C20.87758234 2.87758234 20.29993833 5.7756693 20.30297852 9.63085938 C20.31141785 10.41797806 20.31985718 11.20509674 20.32855225 12.0160675 C20.35440227 14.62530091 20.36648688 17.23442109 20.37890625 19.84375 C20.39507306 21.65214951 20.41225218 23.46054023 20.43040466 25.2689209 C20.47616475 30.03566431 20.51093173 34.80241931 20.54260254 39.5692749 C20.59441003 47.20007294 20.65952031 54.83074177 20.73081779 62.46138 C20.75370334 65.13256694 20.76994144 67.80373739 20.78553772 70.47497559 C20.79894189 72.10636577 20.81255648 73.73775425 20.82641602 75.36914062 C20.82902939 76.1162178 20.83164276 76.86329498 20.83433533 77.63301086 C20.80924851 81.44301467 20.80924851 81.44301467 22 85 C22.99 85 23.98 85 25 85 C26.16121636 81.51635093 26.15225644 78.38611378 26.15771484 74.76220703 C26.16279556 74.02852905 26.16787628 73.29485107 26.17311096 72.53894043 C26.18380726 70.94622107 26.19243035 69.35348676 26.19923019 67.760746 C26.21102698 65.23868224 26.23048161 62.7167891 26.25234985 60.1947937 C26.31394113 53.02428876 26.36801136 45.85380177 26.40136719 38.68310547 C26.42232211 34.29637457 26.45763095 29.90995569 26.50212479 25.52340317 C26.51627753 23.85292103 26.52500559 22.18238371 26.52817917 20.51184464 C26.53309266 18.17309201 26.55626053 15.83516636 26.58349609 13.49658203 C26.58048996 12.80861542 26.57748383 12.1206488 26.5743866 11.41183472 C26.64806204 7.14782235 27.29977191 4.34447081 30 1 C33.0625 0.5 33.0625 0.5 36 1 C41.49533952 9.24300929 39.20216323 23.38502708 39.31640625 33.14453125 C39.33704028 34.65053289 39.3580381 36.15652958 39.37937927 37.66252136 C39.43393562 41.57992484 39.4836308 45.49737461 39.53222656 49.41485596 C39.58293455 53.43090821 39.63836024 57.44689525 39.69335938 61.46289062 C39.80012514 69.30853815 39.90174261 77.15424081 40 85 C41.32 85 42.64 85 44 85 C44.02061493 83.97713898 44.04122986 82.95427795 44.06246948 81.90042114 C44.25770247 72.27645051 44.4631475 62.65274532 44.67867851 53.02920723 C44.78916341 48.08124948 44.89600704 43.13326814 44.99462891 38.18505859 C45.08987793 33.41271816 45.1945612 28.64067071 45.3058815 23.86867905 C45.34674618 22.04503518 45.38416949 20.22131095 45.41814804 18.39752579 C45.46619863 15.84951885 45.5263098 13.30206823 45.58935547 10.75439453 C45.60086639 9.99482452 45.61237732 9.23525452 45.62423706 8.45266724 C45.77189568 3.22810432 45.77189568 3.22810432 48 1 C53.19815668 0.44700461 53.19815668 0.44700461 55.8125 2.25 C58.67960071 6.47520105 58.20508714 11.60667411 58.29711914 16.53222656 C58.31677231 17.39112488 58.33642548 18.25002319 58.35667419 19.13494873 C58.42047675 21.97009755 58.47784367 24.80533817 58.53515625 27.640625 C58.57817127 29.60789851 58.62158786 31.57516329 58.66539001 33.54241943 C58.77953783 38.71757091 58.88822751 43.89282322 58.99578857 49.06811523 C59.12600667 55.27902989 59.26298989 61.48979856 59.39884186 67.70059204 C59.60441649 77.13362625 59.80138613 86.56680509 60 96 C37.89 96 15.78 96 -7 96 C-7.10885821 114.31796885 -7.10885821 114.31796885 1.63671875 127.59375 C4.74046683 130.08253634 7.9596474 131.41796545 11.73046875 132.62890625 C12.53250732 132.88873291 13.3345459 133.14855957 14.16088867 133.41625977 C15.07124878 133.70521118 15.07124878 133.70521118 16 134 C16.05738546 154.94452348 16.06863084 175.88871169 16.02787781 196.83328247 C16.0240808 198.82602939 16.02032234 200.81877638 16.01660156 202.81152344 C16.01474004 203.8079505 16.01287851 204.80437756 16.01096058 205.83099937 C15.99916222 213.03092601 16.00407352 220.23073924 16.01464844 227.43066406 C16.02768657 236.73331906 16.01316404 246.03554422 15.96992779 255.33811188 C15.94755042 260.31183487 15.93659458 265.28491555 15.95559692 270.25866699 C16.1180939 317.7638122 16.1180939 317.7638122 7 336 C6.87742539 337.95549256 6.82447612 339.91570618 6.8125 341.875 C6.79832031 342.92429687 6.78414062 343.97359375 6.76953125 345.0546875 C6.99951714 347.99382925 7.36486 349.57716797 9 352 C9.99 352.66 10.98 353.32 12 354 C5.57144586 354.40178463 0.85408468 353.77298748 -5 351 C-8.62512037 345.56231944 -7.70824406 338.30268428 -6.67022705 331.99658203 C-5.66883903 327.11442593 -4.36910584 322.30773199 -3.0625 317.5 C-2.4934365 315.38633559 -1.93019168 313.27174841 -1.38145447 311.15270996 C-0.88313221 309.23058742 -0.36621837 307.3133116 0.15209961 305.39648438 C2.51025921 294.83532993 2.17400937 283.53245367 2.37304688 272.76196289 C2.40081065 271.40180826 2.42890202 270.04166029 2.45729065 268.68151855 C2.51711897 265.78488289 2.57480132 262.88821587 2.63075256 259.99150276 C2.71946295 255.40549902 2.81385263 250.81962228 2.90905762 246.23374939 C3.14439919 234.85585134 3.3721643 223.47780309 3.59893799 212.09973145 C3.7758603 203.22802366 3.95477833 194.35636513 4.13948298 185.48481554 C4.23407423 180.93071781 4.32464881 176.37656377 4.412117 171.82232392 C4.4673799 168.98997364 4.52620019 166.15770525 4.58598137 163.32544708 C4.62564587 161.39587023 4.66104776 159.46620722 4.69630432 157.5365448 C4.81785565 151.94012618 5.01419875 146.51490161 6 141 C5.05125 140.855625 4.1025 140.71125 3.125 140.5625 C-3.80913405 138.59947631 -8.97535183 132.3789616 -13.5 127.0625 C-17.10593956 119.70037341 -17.32759707 111.54949174 -17.2421875 103.484375 C-17.23645721 102.49653015 -17.23072693 101.5086853 -17.224823 100.49090576 C-17.07987294 88.70571502 -16.11144726 76.98889454 -15.125 65.25 C-14.93809577 62.95148652 -14.75206751 60.65290165 -14.56689453 58.35424805 C-14.29386761 54.96812756 -14.02011307 51.58208453 -13.74252319 48.19633484 C-13.24444162 42.1135618 -12.77272338 36.03052573 -12.359375 29.94140625 C-12.27413574 28.69907227 -12.18889648 27.45673828 -12.10107422 26.17675781 C-11.95711746 24.03450719 -11.81763057 21.89194809 -11.68408203 19.74902344 C-10.6776277 5.10549699 -10.6776277 5.10549699 -7.62060547 1.26879883 C-5.1227736 -0.68679506 -3.0620608 -0.32575115 0 0 Z " fill="#517126" transform="translate(31,108)"/>
<path d="M0 0 C-0.55945313 0.27585938 -1.11890625 0.55171875 -1.6953125 0.8359375 C-15.46357555 7.79007714 -21.72914389 16.44356392 -26.70019531 31.05859375 C-38.82563396 69.42979587 -36.19083602 112.87774078 -36.18530273 152.73632812 C-36.18519889 156.77029984 -36.19914319 160.80410419 -36.21607494 164.83803558 C-36.22719818 168.00200183 -36.22922228 171.16592648 -36.22869301 174.32991028 C-36.2298613 175.81932685 -36.23421714 177.30874492 -36.24202538 178.79814148 C-36.61763323 193.18079133 -36.61763323 193.18079133 -29.6875 205.25 C-28.92824219 206.05953125 -28.16898437 206.8690625 -27.38671875 207.703125 C-25.09856523 210.03714472 -25.09856523 210.03714472 -22.51953125 211.671875 C-16.98722232 216.7839 -14.73813448 223.09211723 -14.36508179 230.5280304 C-14.33561725 233.02543367 -14.33324155 235.52325324 -14.35302734 238.02075195 C-14.34623701 239.40686689 -14.33732598 240.79297278 -14.32647705 242.17906189 C-14.30382108 245.91965793 -14.31246868 249.65955872 -14.32837248 253.4001658 C-14.34113112 257.34347011 -14.32926139 261.2867193 -14.32144165 265.23002625 C-14.31236208 271.86154715 -14.32427594 278.49278913 -14.34814453 285.12426758 C-14.37522913 292.73598708 -14.36662788 300.34703411 -14.3390125 307.95873672 C-14.31612498 314.53591509 -14.31321964 321.11289397 -14.32620585 327.69009942 C-14.33390974 331.59921387 -14.33530047 335.50801555 -14.31852341 339.41710854 C-14.2551945 356.4964456 -14.84062017 372.56266231 -20 389 C-20.42110272 390.39800296 -20.84087042 391.79640894 -21.25912476 393.19526672 C-21.7805455 394.9239222 -21.7805455 394.9239222 -22.3125 396.6875 C-23.83649041 401.91260998 -25.44438387 407.59418097 -24 413 C-21.56871648 415.71370535 -19.96918916 416.00429385 -16.328125 416.51171875 C-14.96942348 416.58427077 -13.6098933 416.64251298 -12.25 416.6875 C-11.55261719 416.72166016 -10.85523438 416.75582031 -10.13671875 416.79101562 C-8.42502892 416.87308295 -6.7125424 416.93822919 -5 417 C-5 417.66 -5 418.32 -5 419 C-9.22994309 418.91899061 -13.45845865 418.80615495 -17.6875 418.6875 C-18.88568359 418.66494141 -20.08386719 418.64238281 -21.31835938 418.61914062 C-22.47529297 418.58369141 -23.63222656 418.54824219 -24.82421875 418.51171875 C-25.88729248 418.48553467 -26.95036621 418.45935059 -28.0456543 418.43237305 C-31.60064384 417.91209485 -33.31965757 417.43074997 -36 415 C-38.56741967 408.96362064 -38.0106463 403.5321859 -36.48046875 397.3359375 C-36.30244217 396.54079742 -36.12441559 395.74565735 -35.94099426 394.92642212 C-35.37438755 392.4047915 -34.78316239 389.88991131 -34.1875 387.375 C-31.49900543 375.8593003 -29.34736852 364.87465918 -29 353 C-28.94751684 351.62089951 -28.89417994 350.2418313 -28.84008789 348.86279297 C-28.35644511 335.6487448 -28.20264466 322.42225634 -28.02928162 309.2013092 C-27.99786575 306.8395531 -27.96484156 304.47782223 -27.9317627 302.11608887 C-27.79210378 291.9633369 -27.68349875 281.81088266 -27.62155628 271.657341 C-27.59242387 266.92315415 -27.55349115 262.18954978 -27.48995972 257.45568848 C-27.4300141 252.93037065 -27.39984123 248.40576692 -27.39123154 243.88006973 C-27.38310367 242.19204604 -27.36466175 240.50403614 -27.33520889 238.81624985 C-26.90796267 227.22535107 -26.90796267 227.22535107 -32.45565796 217.42832947 C-32.96529083 216.95698074 -33.47492371 216.48563202 -34 216 C-34.85722656 215.02933594 -35.71445312 214.05867187 -36.59765625 213.05859375 C-37.81775391 211.76115234 -37.81775391 211.76115234 -39.0625 210.4375 C-50.09097655 198.46230182 -50.09097655 198.46230182 -50.16113281 190.77124023 C-50.17059937 189.90983932 -50.18006592 189.04843842 -50.18981934 188.16093445 C-50.19421021 187.21966202 -50.19860107 186.27838959 -50.203125 185.30859375 C-50.21357849 183.82121452 -50.21357849 183.82121452 -50.22424316 182.30378723 C-50.24190126 179.01498283 -50.24799252 175.72635023 -50.25 172.4375 C-50.25100708 171.30509888 -50.25201416 170.17269775 -50.25305176 169.00598145 C-50.23379295 136.69537299 -48.22985964 104.51723649 -45 72.375 C-44.92245483 71.59451294 -44.84490967 70.81402588 -44.76501465 70.0098877 C-42.35440863 46.17535533 -38.28524377 22.17142182 -20 5 C-13.09042718 -0.30099502 -8.50111874 -1.27516781 0 0 Z " fill="#527427" transform="translate(503,50)"/>
<path d="M0 0 C0.33 0 0.66 0 1 0 C1.98574867 16.55039899 2.37469428 33.11104159 2.75481796 49.68364143 C2.86874817 54.63470303 2.98893121 59.58560163 3.11038208 64.53648376 C3.13103474 65.37959565 3.15168739 66.22270753 3.17296588 67.09136826 C3.21513338 68.81271448 3.25731012 70.53406048 3.29949594 72.25540626 C3.58072059 83.74471961 3.85750381 95.23411081 4.11962891 106.72387695 C4.29769792 114.52706968 4.48492188 122.32998657 4.68227303 130.13271612 C4.7857744 134.23924195 4.88486682 138.34575826 4.9725914 142.45265388 C5.49293059 166.86441557 5.49293059 166.86441557 9 191 C9.21743866 192.08728897 9.43487732 193.17457794 9.65890503 194.29481506 C9.92055954 195.60294411 9.92055954 195.60294411 10.1875 196.9375 C11.36701344 203.34485689 12.60144023 210.72197864 9.66796875 216.7265625 C7.66908358 219.45103831 5.92745236 220.75418664 2.64648438 221.6237793 C-2.0702241 222.29430031 -6.75179703 221.9873714 -11.5 221.8125 C-12.53253906 221.79380859 -13.56507813 221.77511719 -14.62890625 221.75585938 C-18.92522435 221.59786574 -22.26439318 221.32584526 -26.21875 219.57421875 C-29.08173964 215.43669644 -28.68242987 211.87427313 -28 207 C-26.90614456 202.01774723 -25.51347918 197.13757372 -24.0625 192.25 C-23.31909175 189.69415541 -22.583278 187.13623305 -21.84765625 184.578125 C-21.51773682 183.45825195 -21.18781738 182.33837891 -20.84790039 181.18457031 C-19.47985883 176.04643783 -18.87456469 171.18569988 -18.85282898 165.87223816 C-18.84567368 164.66535843 -18.83851837 163.4584787 -18.83114624 162.21502686 C-18.82845734 160.90423157 -18.82576843 159.59343628 -18.82299805 158.24291992 C-18.81672634 156.83793472 -18.81007892 155.43295115 -18.80308533 154.02796936 C-18.78213179 149.42881405 -18.77169312 144.82965872 -18.76171875 140.23046875 C-18.75766835 138.64263708 -18.75355134 137.05480558 -18.74936867 135.46697426 C-18.73033844 128.00735997 -18.71610124 120.54775546 -18.7077567 113.08812159 C-18.69798327 104.49478863 -18.67165203 95.90171316 -18.63125581 87.3084709 C-18.60105065 80.65348511 -18.58628378 73.99857298 -18.58297569 67.34351999 C-18.58063085 63.3743607 -18.57174402 59.40547721 -18.54651451 55.43639183 C-18.52315036 51.70079961 -18.51903364 47.9656632 -18.52927589 44.23001671 C-18.53000332 42.21715756 -18.51097269 40.20432111 -18.49121094 38.19155884 C-18.53287171 30.89989711 -19.29375545 25.35261101 -23 19 C-18.25 20.875 -18.25 20.875 -16 22 C-13.89145964 22.2352732 -13.89145964 22.2352732 -11.5625 22.25 C-10.78003906 22.27578125 -9.99757813 22.3015625 -9.19140625 22.328125 C-6.4578812 21.91882713 -5.69132017 21.1416717 -4 19 C-0.9710223 13.61515076 -0.74128212 9.39663076 -0.9921875 3.2578125 C-0.99605469 2.14019531 -0.99605469 2.14019531 -1 1 C-0.67 0.67 -0.34 0.34 0 0 Z " fill="#8DCB47" transform="translate(506,246)"/>
<path d="M0 0 C2.19060965 0.0419629 4.37814648 0.0410517 6.5690918 0.03417969 C18.45251356 0.12279694 18.45251356 0.12279694 24.12963867 3.54199219 C28.74607107 8.28665882 30.21530019 12.97021413 30.44213867 19.47949219 C30.29485014 25.61037749 28.68080714 29.80165684 24.56713867 34.41699219 C20.58664881 37.88716284 17.53547952 37.71591624 12.45385742 37.74511719 C11.31059746 37.7536673 11.31059746 37.7536673 10.14424133 37.76239014 C8.52944325 37.771843 6.91462585 37.77837525 5.29980469 37.78222656 C2.83713775 37.79191352 0.37531211 37.82292522 -2.0871582 37.85449219 C-3.65681471 37.86102428 -5.22647718 37.86627394 -6.79614258 37.87011719 C-7.89639519 37.88863739 -7.89639519 37.88863739 -9.01887512 37.90753174 C-13.49292074 37.88818143 -16.29809725 37.26955198 -19.87036133 34.54199219 C-24.83660947 28.11508283 -25.62209218 21.39221012 -24.87036133 13.54199219 C-23.42436454 8.35905188 -20.85649378 4.65110444 -16.34765625 1.56298828 C-11.21279545 -0.55330105 -5.47267297 -0.11067084 0 0 Z " fill="#020101" transform="translate(167.870361328125,329.4580078125)"/>
<path d="M0 0 C2.22370135 -0.01713696 4.44588559 -0.06101048 6.66918945 -0.10522461 C8.09561085 -0.11535885 9.52204486 -0.12387266 10.94848633 -0.13061523 C12.23972412 -0.14519775 13.53096191 -0.15978027 14.86132812 -0.17480469 C20.63075605 0.55793588 24.31355481 2.6856285 27.93676758 7.35766602 C31.34228278 13.51378965 31.62092886 20.07766237 29.91333008 26.87719727 C28.02476772 31.74387718 26.24356591 33.83898175 21.5528717 36.43403625 C18.33539734 37.82555712 15.13232236 37.90588899 11.68676758 37.89672852 C10.59452881 37.90958389 10.59452881 37.90958389 9.48022461 37.92269897 C7.95080703 37.93411223 6.42128097 37.93524037 4.8918457 37.92651367 C2.56638035 37.92017858 0.24598252 37.96721818 -2.07885742 38.01782227 C-14.47179492 38.12388663 -14.47179492 38.12388663 -18.87963867 34.49047852 C-23.81456337 29.20228001 -25.02862175 22.81235068 -24.78979492 15.75610352 C-24.01697569 10.34636889 -21.78143834 6.54242865 -17.81323242 2.85766602 C-12.30434019 -0.76660519 -6.39793851 0.03433348 0 0 Z " fill="#010101" transform="translate(235.438232421875,329.704833984375)"/>
<path d="M0 0 C1.48388434 -0.01648401 2.96769179 -0.04367386 4.45117188 -0.08203125 C19.53842233 -0.4697483 19.53842233 -0.4697483 25.25097656 3.98632812 C29.30721401 8.03676473 30.80112846 13.20927036 31.11669922 18.85009766 C30.79681091 25.14858805 28.55263082 30.50635327 23.99169922 34.85009766 C19.9427781 37.40731099 16.89227601 37.53981814 12.19482422 37.58837891 C11.08841583 37.60048653 11.08841583 37.60048653 9.95965576 37.61283875 C8.39614206 37.62667816 6.83259815 37.63740097 5.26904297 37.64526367 C2.88954477 37.66243282 0.51145229 37.70631153 -1.86767578 37.75048828 C-3.38849892 37.76061949 -4.90933385 37.76913425 -6.43017578 37.77587891 C-7.13664246 37.79338699 -7.84310913 37.81089508 -8.57098389 37.82893372 C-13.64484008 37.80690348 -16.47679346 36.53005878 -20.38330078 33.35009766 C-24.8643324 27.1693644 -24.95163836 20.77006054 -24.38330078 13.35009766 C-23.13003828 7.64669117 -19.95447456 4.65690422 -15.38330078 1.35009766 C-10.93372917 -0.87468815 -4.94420439 0.04017913 0 0 Z " fill="#020301" transform="translate(371.38330078125,329.64990234375)"/>
<path d="M0 0 C1.48388434 -0.01648401 2.96769179 -0.04367386 4.45117188 -0.08203125 C19.30210342 -0.4636753 19.30210342 -0.4636753 25.25317383 4.02539062 C29.8270481 8.46905075 30.46530899 13.04139664 30.86669922 19.16259766 C30.76465355 25.17195399 29.0007093 29.72388581 25.11669922 34.28759766 C21.05006615 37.64256994 17.35236177 37.52209046 12.31591797 37.55322266 C11.60192337 37.55892273 10.88792877 37.5646228 10.15229797 37.57049561 C8.6418302 37.57993416 7.13134195 37.58647504 5.62084961 37.59033203 C3.32287136 37.60001895 1.02579508 37.63104372 -1.27197266 37.66259766 C-2.7426705 37.66913022 -4.2133747 37.6743797 -5.68408203 37.67822266 C-6.36553787 37.69056946 -7.04699371 37.70291626 -7.74909973 37.71563721 C-12.35876355 37.69437199 -15.45290823 36.73206524 -19.38330078 34.35009766 C-23.4401516 30.14835931 -24.50371081 25.16794591 -24.69580078 19.47509766 C-24.55539666 13.9828187 -23.77833439 8.91757369 -19.91845703 4.77978516 C-13.66711293 -0.56977581 -7.83162135 0.06364375 0 0 Z " fill="#020201" transform="translate(303.38330078125,329.64990234375)"/>
<path d="M0 0 C22.11 0 44.22 0 67 0 C67 15 67 15 66 17 C54.12 17 42.24 17 30 17 C29.67 17.99 29.34 18.98 29 20 C26.50498729 21.67326628 23.74868272 22.79936721 21 24 C20.071875 24.4125 19.14375 24.825 18.1875 25.25 C13.54919397 26.34136613 8.6646415 27.18377609 4 26 C0 20 0 20 0 0 Z " fill="#C8ED87" transform="translate(24,204)"/>
<path d="M0 0 C5.89829697 0.78224365 11.03947825 2.8036577 16.5625 4.94140625 C20.00897344 6.00276341 22.42882213 6.44014517 26 6 C28.02780339 4.71645521 28.02780339 4.71645521 29.625 2.9375 C31.2890625 1.21484375 31.2890625 1.21484375 33 0 C35.14627048 0.25365015 36.45465091 0.45465091 38 2 C39.08176347 9.64961312 37.25606106 15.61590841 33 22 C29.44722647 23.77638676 25.8715405 23.61896102 22 23 C13.96996327 19.33472191 4.61527439 11.53331885 0 4 C0 2.68 0 1.36 0 0 Z " fill="#E7F7CB" transform="translate(468,246)"/>
<path d="M0 0 C3.61783359 1.60792604 6.28815822 3.3861118 8 7 C8.30264148 11.74435031 7.64223039 15.0658467 4.9375 19 C1.2659949 21.49974815 -1.57346195 22.31185004 -6 22 C-10.05763553 20.49717203 -11.58772494 19.61841259 -14 16 C-14.71207438 11.11483856 -14.72852643 7.1899265 -12.125 2.9375 C-8.38861557 -0.46920345 -4.89284998 -0.52692231 0 0 Z " fill="#EF4134" transform="translate(174,338)"/>
<path d="M0 0 C1.79715454 0.00616333 1.79715454 0.00616333 3.63061523 0.01245117 C4.92805664 0.01438477 6.22549805 0.01631836 7.56225586 0.01831055 C8.23893311 0.02451416 8.91561035 0.03071777 9.61279297 0.03710938 C11.68461369 0.0553794 13.75598795 0.05761897 15.82788086 0.05737305 C25.98662641 0.10283735 25.98662641 0.10283735 27.12670898 1.24291992 C27.29467773 3.23901367 27.29467773 3.23901367 27.31420898 5.68041992 C27.32838867 6.48350586 27.34256836 7.2865918 27.35717773 8.11401367 C27.12670898 10.24291992 27.12670898 10.24291992 25.12670898 12.24291992 C22.36108398 12.50170898 22.36108398 12.50170898 18.87670898 12.50854492 C17.00499023 12.51241211 17.00499023 12.51241211 15.09545898 12.51635742 C13.13092773 12.50475586 13.13092773 12.50475586 11.12670898 12.49291992 C9.81702148 12.5006543 8.50733398 12.50838867 7.15795898 12.51635742 C5.91014648 12.5137793 4.66233398 12.51120117 3.37670898 12.50854492 C1.65194336 12.50516113 1.65194336 12.50516113 -0.10766602 12.50170898 C-2.87329102 12.24291992 -2.87329102 12.24291992 -4.87329102 10.24291992 C-5.13891602 8.36791992 -5.13891602 8.36791992 -5.12329102 6.24291992 C-5.12844727 5.54166992 -5.13360352 4.84041992 -5.13891602 4.11791992 C-4.65856118 0.72717992 -3.22802063 0.27291023 0 0 Z " fill="#89C048" transform="translate(362.873291015625,342.757080078125)"/>
<path d="M0 0 C1.9375 0.0625 1.9375 0.0625 4 1 C7.19534826 8.06340141 7.24448256 16.05222965 7.375 23.6875 C7.41238281 24.52861328 7.44976562 25.36972656 7.48828125 26.23632812 C7.57618852 32.39472053 7.57618852 32.39472053 4.6015625 35.51953125 C0.38263179 37.92039422 -2.06274699 38.34050021 -7 38 C-9.4375 36.5 -9.4375 36.5 -11 35 C-10.72482232 30.32197941 -8.66806114 28.25361247 -5.47265625 25.13671875 C-4 24 -4 24 -2 24 C-1.97494385 23.30849854 -1.9498877 22.61699707 -1.92407227 21.90454102 C-1.80847839 18.79032134 -1.68558758 15.67643211 -1.5625 12.5625 C-1.52318359 11.47388672 -1.48386719 10.38527344 -1.44335938 9.26367188 C-1.40146484 8.22919922 -1.35957031 7.19472656 -1.31640625 6.12890625 C-1.26141968 4.69140015 -1.26141968 4.69140015 -1.20532227 3.22485352 C-1 1 -1 1 0 0 Z " fill="#E6F7C9" transform="translate(63,418)"/>
<path d="M0 0 C20.16987895 -0.42118077 20.16987895 -0.42118077 27 2 C29 4 29 4 29 7 C20.87713633 11.24697948 13.4014045 14.65734588 4 13 C1.3125 10.4375 1.3125 10.4375 0 7 C-0.05151215 4.66723534 -0.05824582 2.33260624 0 0 Z " fill="#E8F8CC" transform="translate(24,217)"/>
<path d="M0 0 C0.99 0 1.98 0 3 0 C6.06807994 5.31800522 6.18888313 11.100304 6.3125 17.125 C6.34988281 18.32382812 6.38726562 19.52265625 6.42578125 20.7578125 C6 24 6 24 4.37109375 26.4140625 C1.30351066 28.46585613 -0.59257983 28.40901827 -4.25 28.25 C-5.32765625 28.21390625 -6.4053125 28.1778125 -7.515625 28.140625 C-8.74539063 28.07101562 -8.74539063 28.07101562 -10 28 C-10.66 26.68 -11.32 25.36 -12 24 C-7 19 -7 19 -4.75 16.8125 C-1.08244006 13.01395578 -1.61748409 8.70185921 -1.28125 3.65234375 C-1 1 -1 1 0 0 Z " fill="#E7F7CA" transform="translate(504,434)"/>
<path d="M0 0 C1.94712891 -0.03287109 1.94712891 -0.03287109 3.93359375 -0.06640625 C8.32497449 0.69464036 9.77793338 2.17702498 12.5625 5.5625 C11.10193294 8.9704898 9.46113745 11.23109177 6.5625 13.5625 C1.39876237 14.45492188 -4.67067368 14.88827094 -9.5 12.57421875 C-10.875 11.3125 -10.875 11.3125 -12.4375 8.5625 C-12.52320699 5.73416929 -11.54699007 4.70510414 -9.8359375 2.4765625 C-6.51779901 -0.17146333 -4.20187411 -0.00416439 0 0 Z " fill="#4A6C25" transform="translate(354.4375,222.4375)"/>
<path d="M0 0 C2.57067893 1.40972716 4.08280073 2.76872907 5.9375 5.0625 C6.82992188 10.22623763 7.26327094 16.29567368 4.94921875 21.125 C3.6875 22.5 3.6875 22.5 0.9375 24.0625 C-1.90639731 24.14867871 -2.92324245 23.17150685 -5.1484375 21.4296875 C-8.37733463 17.43639839 -7.65852979 13.3171703 -7.51953125 8.375 C-7.09607038 5.30581354 -6.86771576 3.86473978 -4.8125 1.625 C-2.0625 0.0625 -2.0625 0.0625 0 0 Z " fill="#4A6B24" transform="translate(371.0625,260.9375)"/>
<path d="M0 0 C2.57067893 1.40972716 4.08280073 2.76872907 5.9375 5.0625 C6.82992188 10.22623763 7.26327094 16.29567368 4.94921875 21.125 C3.6875 22.5 3.6875 22.5 0.9375 24.0625 C-1.90639731 24.14867871 -2.92324245 23.17150685 -5.1484375 21.4296875 C-8.37733463 17.43639839 -7.65852979 13.3171703 -7.51953125 8.375 C-7.09607038 5.30581354 -6.86771576 3.86473978 -4.8125 1.625 C-2.0625 0.0625 -2.0625 0.0625 0 0 Z " fill="#4A6B25" transform="translate(207.0625,260.9375)"/>
<path d="M0 0 C2.57067893 1.40972716 4.08280073 2.76872907 5.9375 5.0625 C6.82992188 10.22623763 7.26327094 16.29567368 4.94921875 21.125 C3.6875 22.5 3.6875 22.5 0.9375 24.0625 C-1.90639731 24.14867871 -2.92324245 23.17150685 -5.1484375 21.4296875 C-8.37733463 17.43639839 -7.65852979 13.3171703 -7.51953125 8.375 C-7.09607038 5.30581354 -6.86771576 3.86473978 -4.8125 1.625 C-2.0625 0.0625 -2.0625 0.0625 0 0 Z " fill="#496B24" transform="translate(371.0625,231.9375)"/>
<path d="M0 0 C2.57067893 1.40972716 4.08280073 2.76872907 5.9375 5.0625 C6.82992188 10.22623763 7.26327094 16.29567368 4.94921875 21.125 C3.6875 22.5 3.6875 22.5 0.9375 24.0625 C-1.90639731 24.14867871 -2.92324245 23.17150685 -5.1484375 21.4296875 C-8.37733463 17.43639839 -7.65852979 13.3171703 -7.51953125 8.375 C-7.09607038 5.30581354 -6.86771576 3.86473978 -4.8125 1.625 C-2.0625 0.0625 -2.0625 0.0625 0 0 Z " fill="#496B24" transform="translate(207.0625,231.9375)"/>
<path d="M0 0 C3.06918646 0.42346087 4.51026022 0.65181549 6.75 2.70703125 C8.3125 5.45703125 8.3125 5.45703125 8.375 7.51953125 C6.96527284 10.09021018 5.60627093 11.60233198 3.3125 13.45703125 C-1.85123763 14.34945313 -7.92067368 14.78280219 -12.75 12.46875 C-14.125 11.20703125 -14.125 11.20703125 -15.6875 8.45703125 C-15.77367871 5.61313394 -14.79650685 4.5962888 -13.0546875 2.37109375 C-9.06139839 -0.85780338 -4.9421703 -0.13899854 0 0 Z " fill="#496B24" transform="translate(303.6875,222.54296875)"/>
<path d="M0 0 C3.06918646 0.42346087 4.51026022 0.65181549 6.75 2.70703125 C8.3125 5.45703125 8.3125 5.45703125 8.375 7.51953125 C6.96527284 10.09021018 5.60627093 11.60233198 3.3125 13.45703125 C-1.85123763 14.34945313 -7.92067368 14.78280219 -12.75 12.46875 C-14.125 11.20703125 -14.125 11.20703125 -15.6875 8.45703125 C-15.77367871 5.61313394 -14.79650685 4.5962888 -13.0546875 2.37109375 C-9.06139839 -0.85780338 -4.9421703 -0.13899854 0 0 Z " fill="#496A24" transform="translate(248.6875,222.54296875)"/>
<path d="M0 0 C1.30710937 -0.0309375 2.61421875 -0.061875 3.9609375 -0.09375 C8.39687218 0.6250795 9.82470814 2.08342769 12.625 5.5 C11.32065944 8.4096828 10.20722598 10.59139819 7.625 12.5 C4.2265625 12.96875 4.2265625 12.96875 0.25 13 C-1.05710937 13.0309375 -2.36421875 13.061875 -3.7109375 13.09375 C-8.14687218 12.3749205 -9.57470814 10.91657231 -12.375 7.5 C-9.48779102 1.05930304 -7.15376163 0.05621817 0 0 Z " fill="#476723" transform="translate(354.375,281.5)"/>
<path d="M0 0 C1.30710937 -0.0309375 2.61421875 -0.061875 3.9609375 -0.09375 C8.39687218 0.6250795 9.82470814 2.08342769 12.625 5.5 C11.32065944 8.4096828 10.20722598 10.59139819 7.625 12.5 C4.2265625 12.96875 4.2265625 12.96875 0.25 13 C-1.05710937 13.0309375 -2.36421875 13.061875 -3.7109375 13.09375 C-8.14687218 12.3749205 -9.57470814 10.91657231 -12.375 7.5 C-9.48779102 1.05930304 -7.15376163 0.05621817 0 0 Z " fill="#486924" transform="translate(354.375,252.5)"/>
<path d="M0 0 C1.07411133 -0.0299707 1.07411133 -0.0299707 2.16992188 -0.06054688 C5.73148287 -0.05724608 7.69749651 0.16018846 10.56640625 2.33984375 C12.0625 4.4375 12.0625 4.4375 12.0625 6.4375 C10.71832418 9.12585164 9.43325156 10.55552352 7.0625 12.4375 C3.53125 13.00390625 3.53125 13.00390625 -0.4375 13 C-2.40203125 13.03287109 -2.40203125 13.03287109 -4.40625 13.06640625 C-7.9375 12.4375 -7.9375 12.4375 -10.41015625 10.03515625 C-11.9375 7.4375 -11.9375 7.4375 -11.875 5.3125 C-9.17405943 -0.08938115 -5.66251074 -0.05576331 0 0 Z " fill="#486924" transform="translate(299.9375,252.5625)"/>
<path d="M0 0 C1.30710937 -0.0309375 2.61421875 -0.061875 3.9609375 -0.09375 C8.39687218 0.6250795 9.82470814 2.08342769 12.625 5.5 C11.32064986 8.40970416 10.21202065 10.5971501 7.625 12.5 C5.04086978 12.82632361 2.76652951 12.96469974 0.1875 12.9375 C-1.79056641 12.96650391 -1.79056641 12.96650391 -3.80859375 12.99609375 C-7.375 12.5 -7.375 12.5 -9.8515625 10.6328125 C-11.375 8.5 -11.375 8.5 -11.3125 5.9375 C-9.07469876 0.11921679 -5.98788993 0.04705611 0 0 Z " fill="#476723" transform="translate(299.375,281.5)"/>
<path d="M0 0 C2.25248367 1.20132462 3.35353658 1.91378284 4.875 4 C5.2008438 6.74472033 5.33948502 9.19729377 5.3125 11.9375 C5.33248047 12.65357422 5.35246094 13.36964844 5.37304688 14.10742188 C5.36974608 17.66898287 5.15231154 19.63499651 2.97265625 22.50390625 C0.875 24 0.875 24 -1.125 24 C-3.79215069 22.66642466 -5.24429183 21.33453959 -7.125 19 C-8.01742188 13.83626237 -8.45077094 7.76682632 -6.13671875 2.9375 C-4.27320129 0.90666982 -2.77277761 0 0 0 Z " fill="#486824" transform="translate(339.125,261)"/>
<path d="M0 0 C2.90970416 1.30435014 5.0971501 2.41297935 7 5 C7.32632361 7.58413022 7.46469974 9.85847049 7.4375 12.4375 C7.45683594 13.75621094 7.47617187 15.07492187 7.49609375 16.43359375 C7 20 7 20 5.1328125 22.4765625 C3 24 3 24 0.4375 23.9375 C-2.28352898 22.89095039 -3.29497691 22.35225565 -5 20 C-5.46875 16.6015625 -5.46875 16.6015625 -5.5 12.625 C-5.5309375 11.31789063 -5.561875 10.01078125 -5.59375 8.6640625 C-4.8749205 4.22812782 -3.41657231 2.80029186 0 0 Z " fill="#476723" transform="translate(315,261)"/>
<path d="M0 0 C2.90970416 1.30435014 5.0971501 2.41297935 7 5 C7.32632361 7.58413022 7.46469974 9.85847049 7.4375 12.4375 C7.45683594 13.75621094 7.47617187 15.07492187 7.49609375 16.43359375 C7 20 7 20 5.1328125 22.4765625 C3 24 3 24 0.4375 23.9375 C-2.28352898 22.89095039 -3.29497691 22.35225565 -5 20 C-5.46875 16.6015625 -5.46875 16.6015625 -5.5 12.625 C-5.5309375 11.31789063 -5.561875 10.01078125 -5.59375 8.6640625 C-4.8749205 4.22812782 -3.41657231 2.80029186 0 0 Z " fill="#476723" transform="translate(260,261)"/>
<path d="M0 0 C1.07411133 -0.0299707 1.07411133 -0.0299707 2.16992188 -0.06054688 C5.73148287 -0.05724608 7.69749651 0.16018846 10.56640625 2.33984375 C12.0625 4.4375 12.0625 4.4375 12.0625 6.4375 C10.72892466 9.10465069 9.39703959 10.55679183 7.0625 12.4375 C1.89876237 13.32992188 -4.17067368 13.76327094 -9 11.44921875 C-10.375 10.1875 -10.375 10.1875 -11.9375 7.4375 C-11.9375 4.92947197 -11.24558169 3.89680128 -9.87109375 1.84765625 C-6.83867124 -0.36386804 -3.60847947 -0.03553561 0 0 Z " fill="#476823" transform="translate(244.9375,252.5625)"/>
<path d="M0 0 C2.25248367 1.20132462 3.35353658 1.91378284 4.875 4 C5.2008438 6.74472033 5.33948502 9.19729377 5.3125 11.9375 C5.33248047 12.65357422 5.35246094 13.36964844 5.37304688 14.10742188 C5.36974608 17.66898287 5.15231154 19.63499651 2.97265625 22.50390625 C0.875 24 0.875 24 -1.125 24 C-3.79215069 22.66642466 -5.24429183 21.33453959 -7.125 19 C-8.01742188 13.83626237 -8.45077094 7.76682632 -6.13671875 2.9375 C-4.27320129 0.90666982 -2.77277761 0 0 0 Z " fill="#476824" transform="translate(339.125,232)"/>
<path d="M0 0 C2.66715069 1.33357534 4.11929183 2.66546041 6 5 C6.89242188 10.16373763 7.32577094 16.23317368 5.01171875 21.0625 C3.75 22.4375 3.75 22.4375 1 24 C-1.50802803 24 -2.54069872 23.30808169 -4.58984375 21.93359375 C-6.80136804 18.90117124 -6.47303561 15.67097947 -6.4375 12.0625 C-6.4674707 10.98838867 -6.4674707 10.98838867 -6.49804688 9.89257812 C-6.49474608 6.33101713 -6.27731154 4.36500349 -4.09765625 1.49609375 C-2 0 -2 0 0 0 Z " fill="#476823" transform="translate(284,232)"/>
<path d="M0 0 C2.66715069 1.33357534 4.11929183 2.66546041 6 5 C6.89242188 10.16373763 7.32577094 16.23317368 5.01171875 21.0625 C3.75 22.4375 3.75 22.4375 1 24 C-1.50802803 24 -2.54069872 23.30808169 -4.58984375 21.93359375 C-6.80136804 18.90117124 -6.47303561 15.67097947 -6.4375 12.0625 C-6.4674707 10.98838867 -6.4674707 10.98838867 -6.49804688 9.89257812 C-6.49474608 6.33101713 -6.27731154 4.36500349 -4.09765625 1.49609375 C-2 0 -2 0 0 0 Z " fill="#476723" transform="translate(316,232)"/>
<path d="M0 0 C2.25248367 1.20132462 3.35353658 1.91378284 4.875 4 C5.2008438 6.74472033 5.33948502 9.19729377 5.3125 11.9375 C5.33248047 12.65357422 5.35246094 13.36964844 5.37304688 14.10742188 C5.36974608 17.66898287 5.15231154 19.63499651 2.97265625 22.50390625 C0.875 24 0.875 24 -1.125 24 C-3.79215069 22.66642466 -5.24429183 21.33453959 -7.125 19 C-8.01742188 13.83626237 -8.45077094 7.76682632 -6.13671875 2.9375 C-4.27320129 0.90666982 -2.77277761 0 0 0 Z " fill="#476723" transform="translate(262.125,232)"/>
<path d="M0 0 C1.97806641 -0.02900391 1.97806641 -0.02900391 3.99609375 -0.05859375 C7.5625 0.4375 7.5625 0.4375 10.03515625 2.3046875 C11.5625 4.4375 11.5625 4.4375 11.5625 7 C10.32550743 10.01516939 9.37254831 10.80332034 6.5625 12.4375 C1.4339282 13.17102636 -4.80113313 13.90045503 -9.46484375 11.3125 C-10.8125 9.9375 -10.8125 9.9375 -12.4375 7.4375 C-9.574971 1.05185837 -6.9278753 -0.07306484 0 0 Z " fill="#476723" transform="translate(245.4375,281.5625)"/>
<path d="M0 0 C2.90498641 1.30223529 5.07423238 2.43770415 7 5 C7.75462964 10.1189044 8.45347815 16.37566444 5.875 21.03125 C4.5 22.375 4.5 22.375 2 24 C-0.90498641 22.69776471 -3.07423238 21.56229585 -5 19 C-5.75462964 13.8810956 -6.45347815 7.62433556 -3.875 2.96875 C-2.5 1.625 -2.5 1.625 0 0 Z " fill="#466623" transform="translate(228,232)"/>
<path d="M0 0 C0 7.26 0 14.52 0 22 C-6.03409511 18.72221994 -12.05422551 15.43533637 -18 12 C-18 11.34 -18 10.68 -18 10 C-16.45532227 8.85498047 -16.45532227 8.85498047 -14.31640625 7.6171875 C-13.55392578 7.17246094 -12.79144531 6.72773438 -12.00585938 6.26953125 C-10.79639648 5.57923828 -10.79639648 5.57923828 -9.5625 4.875 C-8.76005859 4.40707031 -7.95761719 3.93914062 -7.13085938 3.45703125 C-1.15916545 0 -1.15916545 0 0 0 Z " fill="#E7E7E7" transform="translate(244,338)"/>
<path d="M0 0 C6.2390956 3.0328937 12.20056578 6.19310882 18 10 C13.35773213 15.47124427 7.27812351 18.65872874 1 22 C0.67 22 0.34 22 0 22 C0 14.74 0 7.48 0 0 Z " fill="#E7E7E7" transform="translate(301,338)"/>
</svg>
